<?xml version="1.0" standalone="no"?>
<!DOCTYPE svg PUBLIC "-//W3C//DTD SVG 20010904//EN"
 "http://www.w3.org/TR/2001/REC-SVG-20010904/DTD/svg10.dtd">
<svg version="1.0" xmlns="http://www.w3.org/2000/svg"
 width="980.000000pt" height="980.000000pt" viewBox="0 0 980.000000 980.000000"
 preserveAspectRatio="xMidYMid meet">
<metadata>
Created by potrace 1.14, written by Peter Selinger 2001-2017
</metadata>
<g transform="translate(0.000000,980.000000) scale(0.100000,-0.100000)"
fill="#000000" stroke="none">
<path d="M2915 8743 c-75 -230 -139 -424 -141 -430 -2 -10 -70 -13 -286 -14
-156 -1 -366 -4 -466 -8 l-184 -6 139 -99 c229 -165 557 -412 579 -437 l22
-24 -89 -280 c-121 -381 -172 -555 -166 -562 10 -9 62 26 354 235 153 109 299
213 326 231 l47 32 58 -31 c31 -16 157 -102 279 -189 301 -216 401 -283 412
-279 11 4 -11 80 -139 488 -55 173 -102 327 -105 341 -6 24 3 34 102 111 59
46 218 164 353 262 135 98 251 183 258 190 15 15 -284 26 -683 26 l-230 0 -99
308 c-124 389 -179 545 -193 549 -7 3 -64 -157 -148 -414z"/>
<path d="M6909 8466 c-523 -214 -941 -600 -1170 -1081 -116 -243 -223 -663
-178 -691 7 -4 64 -20 127 -35 64 -16 190 -52 280 -81 182 -58 177 -59 188 22
25 185 78 368 148 515 44 93 188 315 225 350 28 24 29 21 71 -100 47 -137 188
-415 285 -560 328 -494 785 -871 1299 -1073 154 -61 346 -117 541 -157 93 -20
171 -37 172 -39 9 -9 -274 -269 -353 -325 -122 -87 -302 -172 -464 -221 -74
-22 -150 -43 -167 -46 -18 -3 -33 -9 -33 -13 0 -4 84 -12 188 -19 290 -18 482
-55 735 -142 65 -22 125 -40 134 -40 35 0 264 214 391 365 221 263 378 590
447 929 14 68 25 143 25 166 l0 43 -32 -7 c-299 -60 -293 -60 -543 -60 -188 0
-262 3 -340 18 -480 86 -842 267 -1164 580 -221 217 -366 428 -491 720 -97
226 -134 402 -151 720 -14 268 -19 300 -44 303 -11 1 -68 -17 -126 -41z"/>
<path d="M1207 6553 c-9 -17 -41 -110 -71 -208 -30 -97 -58 -180 -61 -184 -4
-3 -108 -8 -231 -10 -123 -2 -224 -7 -224 -11 0 -4 78 -63 173 -130 94 -68
175 -126 179 -129 4 -4 -13 -72 -38 -151 -69 -220 -84 -280 -72 -280 11 0 36
17 236 153 62 42 119 77 126 77 14 0 56 -27 254 -165 51 -36 97 -65 103 -65
14 0 8 26 -57 236 -30 97 -54 180 -54 184 0 4 81 66 180 136 99 70 180 131
180 136 0 4 -84 8 -187 9 -104 0 -208 4 -232 7 -43 7 -45 8 -62 62 -69 217
-103 318 -114 339 l-13 25 -15 -31z"/>
<path d="M4517 6129 c-473 -83 -837 -225 -1172 -457 -216 -149 -440 -357 -595
-552 -167 -210 -246 -345 -446 -766 -19 -40 -40 -74 -47 -77 -7 -3 -65 4 -128
15 -148 26 -400 28 -549 4 -297 -46 -594 -164 -800 -316 -187 -139 -385 -345
-497 -517 -137 -209 -239 -494 -274 -758 -19 -147 -6 -464 24 -606 123 -568
486 -1032 1002 -1285 127 -62 353 -140 452 -156 93 -15 6219 -23 6588 -9 285
11 344 22 532 94 542 210 932 621 1117 1177 56 168 66 233 73 491 9 310 -11
456 -94 679 -198 538 -623 952 -1158 1129 -142 47 -231 66 -383 82 -140 14
-406 7 -522 -15 l-85 -16 -21 23 c-11 13 -40 69 -64 123 -118 272 -252 501
-406 694 -96 119 -330 352 -450 447 -324 257 -692 435 -1087 528 -261 61 -785
84 -1010 44z m528 -609 c186 -13 268 -25 401 -60 347 -91 681 -281 947 -539
398 -384 646 -964 647 -1508 0 -73 3 -133 8 -133 4 0 48 37 97 81 263 235 553
342 880 326 385 -20 733 -219 955 -549 95 -141 150 -272 186 -440 24 -112 24
-342 0 -453 -96 -441 -410 -793 -837 -936 -89 -30 -107 -32 -329 -42 -331 -16
-5868 -15 -6190 0 -275 13 -326 25 -495 108 -300 148 -530 411 -637 725 -118
349 -55 769 160 1064 188 257 413 411 721 494 85 22 116 25 271 26 200 0 290
-16 458 -85 144 -58 319 -176 421 -283 19 -20 39 -36 43 -36 4 0 8 44 8 98 0
210 50 503 121 709 217 629 723 1127 1359 1337 289 95 485 119 805 96z"/>
</g>
</svg>
